<svg width="1019" height="972" viewBox="0 0 1019 972" fill="none" xmlns="http://www.w3.org/2000/svg">
<path d="M476.337 40.1089L57.0316 638.939" stroke="#F9EED2" stroke-width="12.6586"/>
<path d="M960.24 378.941L540.934 977.771" stroke="#F9EED2" stroke-width="12.6586"/>
<path d="M718.288 209.525L298.983 808.355" stroke="#F9EED2" stroke-width="12.6586"/>
<path d="M969.731 488.609L370.901 69.304" stroke="#F9EED2" stroke-width="12.6586"/>
<path d="M800.314 730.561L201.484 311.255" stroke="#F9EED2" stroke-width="12.6586"/>
<path d="M630.898 972.512L32.0682 553.207" stroke="#F9EED2" stroke-width="12.6586"/>
<path d="M597.312 124.817L178.007 723.647" stroke="#F9EED2" stroke-width="12.6586"/>
<path d="M839.264 294.233L419.958 893.063" stroke="#F9EED2" stroke-width="12.6586"/>
<path d="M885.022 609.585L286.192 190.28" stroke="#F9EED2" stroke-width="12.6586"/>
<path d="M715.606 851.537L116.776 432.231" stroke="#F9EED2" stroke-width="12.6586"/>
<path d="M266.113 402.869L284.247 505.711" stroke="#F9EED2" stroke-width="8.43909"/>
<path d="M223.759 463.357L326.601 445.223" stroke="#F9EED2" stroke-width="8.43909"/>
<path d="M592.773 451.31L610.907 554.152" stroke="#F9EED2" stroke-width="8.43909"/>
<path d="M550.419 511.798L653.261 493.664" stroke="#F9EED2" stroke-width="8.43909"/>
<path d="M435.53 160.918L453.664 263.76" stroke="#F9EED2" stroke-width="8.43909"/>
<path d="M393.176 221.406L496.018 203.272" stroke="#F9EED2" stroke-width="8.43909"/>
<circle cx="686.548" cy="381.755" r="32.7015" transform="rotate(35 686.548 381.755)" stroke="#F9EED2" stroke-width="8.43909"/>
<circle cx="396.156" cy="538.999" r="32.7015" transform="rotate(35 396.156 538.999)" stroke="#F9EED2" stroke-width="8.43909"/>
<circle cx="480.864" cy="418.023" r="32.7015" transform="rotate(35 480.864 418.023)" stroke="#F9EED2" stroke-width="8.43909"/>
</svg>
