<svg width="645" height="547" viewBox="0 0 645 547" fill="none" xmlns="http://www.w3.org/2000/svg">
<path d="M332.81 27.9012L39.8471 446.295" stroke="#F9EED2" stroke-width="8.84441"/>
<path d="M670.906 264.639L377.943 683.032" stroke="#F9EED2" stroke-width="8.84441"/>
<path d="M501.858 146.27L208.895 564.664" stroke="#F9EED2" stroke-width="8.84441"/>
<path d="M677.537 341.262L259.143 48.2993" stroke="#F9EED2" stroke-width="8.84441"/>
<path d="M559.168 510.31L140.774 217.347" stroke="#F9EED2" stroke-width="8.84441"/>
<path d="M440.799 679.358L22.4056 386.395" stroke="#F9EED2" stroke-width="8.84441"/>
<path d="M417.333 87.0855L124.371 505.479" stroke="#F9EED2" stroke-width="8.84441"/>
<path d="M586.381 205.454L293.419 623.848" stroke="#F9EED2" stroke-width="8.84441"/>
<path d="M618.352 425.786L199.958 132.823" stroke="#F9EED2" stroke-width="8.84441"/>
<path d="M499.984 594.834L81.5898 301.871" stroke="#F9EED2" stroke-width="8.84441"/>
<path d="M185.93 281.357L198.6 353.211" stroke="#F9EED2" stroke-width="5.89627"/>
<path d="M156.338 323.619L228.192 310.949" stroke="#F9EED2" stroke-width="5.89627"/>
<path d="M414.162 315.201L426.832 387.056" stroke="#F9EED2" stroke-width="5.89627"/>
<path d="M384.57 357.463L456.424 344.794" stroke="#F9EED2" stroke-width="5.89627"/>
<path d="M304.298 112.309L316.968 184.163" stroke="#F9EED2" stroke-width="5.89627"/>
<path d="M274.706 154.571L346.56 141.901" stroke="#F9EED2" stroke-width="5.89627"/>
<circle cx="479.681" cy="266.604" r="22.8481" transform="rotate(35 479.681 266.604)" stroke="#F9EED2" stroke-width="5.89627"/>
<circle cx="276.789" cy="376.468" r="22.8481" transform="rotate(35 276.789 376.468)" stroke="#F9EED2" stroke-width="5.89627"/>
<circle cx="335.973" cy="291.944" r="22.8481" transform="rotate(35 335.973 291.944)" stroke="#F9EED2" stroke-width="5.89627"/>
</svg>
