<svg width="645" height="559" viewBox="0 0 645 559" fill="none" xmlns="http://www.w3.org/2000/svg">
<g clip-path="url(#clip0_86_21068)">
<path d="M332.81 39.9011L39.8471 458.295" stroke="#F9EED2" stroke-width="8.84441"/>
<path d="M670.906 276.638L377.943 695.032" stroke="#F9EED2" stroke-width="8.84441"/>
<path d="M501.858 158.27L208.895 576.664" stroke="#F9EED2" stroke-width="8.84441"/>
<path d="M677.537 353.262L259.143 60.2994" stroke="#F9EED2" stroke-width="8.84441"/>
<path d="M559.168 522.31L140.774 229.347" stroke="#F9EED2" stroke-width="8.84441"/>
<path d="M440.799 691.358L22.4056 398.395" stroke="#F9EED2" stroke-width="8.84441"/>
<path d="M417.333 99.0854L124.371 517.479" stroke="#F9EED2" stroke-width="8.84441"/>
<path d="M586.381 217.454L293.419 635.848" stroke="#F9EED2" stroke-width="8.84441"/>
<path d="M618.352 437.786L199.958 144.823" stroke="#F9EED2" stroke-width="8.84441"/>
<path d="M499.984 606.834L81.5898 313.871" stroke="#F9EED2" stroke-width="8.84441"/>
<path d="M185.93 293.357L198.6 365.211" stroke="#F9EED2" stroke-width="5.89627"/>
<path d="M156.338 335.619L228.192 322.949" stroke="#F9EED2" stroke-width="5.89627"/>
<path d="M414.162 327.201L426.832 399.056" stroke="#F9EED2" stroke-width="5.89627"/>
<path d="M384.57 369.463L456.424 356.794" stroke="#F9EED2" stroke-width="5.89627"/>
<path d="M304.298 124.309L316.968 196.163" stroke="#F9EED2" stroke-width="5.89627"/>
<path d="M274.706 166.571L346.56 153.901" stroke="#F9EED2" stroke-width="5.89627"/>
<circle cx="479.681" cy="278.605" r="22.8481" transform="rotate(35 479.681 278.605)" stroke="#F9EED2" stroke-width="5.89627"/>
<circle cx="276.789" cy="388.468" r="22.8481" transform="rotate(35 276.789 388.468)" stroke="#F9EED2" stroke-width="5.89627"/>
<circle cx="335.973" cy="303.944" r="22.8481" transform="rotate(35 335.973 303.944)" stroke="#F9EED2" stroke-width="5.89627"/>
</g>
<defs>
<clipPath id="clip0_86_21068">
<rect width="645" height="559" fill="white"/>
</clipPath>
</defs>
</svg>
