<svg width="35" height="35" viewBox="0 0 35 35" fill="none" xmlns="http://www.w3.org/2000/svg">
<g clip-path="url(#clip0_156_3121)">
<path d="M34.7081 7.45803C34.555 6.84074 33.7825 6.63156 33.3327 7.08137L28.2495 12.1646L23.6093 11.3914L22.8361 6.75119L27.9193 1.66799C28.3719 1.21545 28.1538 0.444357 27.5324 0.289865C24.2935 -0.512674 20.7272 0.352072 18.1959 2.88274C15.4861 5.5925 14.7403 9.52043 15.8683 12.9452L1.28104 27.5324C-0.427258 29.2407 -0.427258 32.0107 1.28104 33.719C2.98934 35.4273 5.75927 35.4273 7.46757 33.719L22.0425 19.1441C25.4686 20.2863 29.3891 19.5323 32.1166 16.8048C34.6507 14.2707 35.5141 10.6989 34.7081 7.45803V7.45803ZM4.37499 32.2656C3.46923 32.2656 2.73436 31.5308 2.73436 30.625C2.73436 29.7186 3.46923 28.9844 4.37499 28.9844C5.28075 28.9844 6.01561 29.7186 6.01561 30.625C6.01561 31.5308 5.28075 32.2656 4.37499 32.2656Z" fill="#AB7B4E"/>
</g>
<defs>
<clipPath id="clip0_156_3121">
<rect width="35" height="35" fill="white"/>
</clipPath>
</defs>
</svg>
