<svg width="250" height="250" viewBox="0 0 250 250" fill="none" xmlns="http://www.w3.org/2000/svg">
<rect width="21" height="20" rx="5" fill="#BDB2FF"/>
<rect y="102" width="21" height="20" rx="5" fill="#BDB2FF"/>
<rect y="26" width="21" height="20" rx="5" fill="#BDB2FF"/>
<rect y="128" width="21" height="20" rx="5" fill="#BDB2FF"/>
<rect y="51" width="21" height="20" rx="5" fill="#BDB2FF"/>
<rect y="153" width="21" height="20" rx="5" fill="#BDB2FF"/>
<rect y="205" width="21" height="20" rx="5" fill="#BDB2FF"/>
<rect y="76" width="21" height="20" rx="5" fill="#BDB2FF"/>
<rect y="178" width="21" height="20" rx="5" fill="#BDB2FF"/>
<rect y="230" width="21" height="20" rx="5" fill="#BDB2FF"/>
<rect x="102" width="20" height="20" rx="5" fill="#BDB2FF"/>
<rect x="102" y="102" width="20" height="20" rx="5" fill="#BDB2FF"/>
<rect x="102" y="26" width="20" height="20" rx="5" fill="#BDB2FF"/>
<rect x="102" y="128" width="20" height="20" rx="5" fill="#BDB2FF"/>
<rect x="102" y="51" width="20" height="20" rx="5" fill="#BDB2FF"/>
<rect x="102" y="153" width="20" height="20" rx="5" fill="#BDB2FF"/>
<rect x="102" y="205" width="20" height="20" rx="5" fill="#BDB2FF"/>
<rect x="102" y="76" width="20" height="20" rx="5" fill="#BDB2FF"/>
<rect x="102" y="178" width="20" height="20" rx="5" fill="#BDB2FF"/>
<rect x="102" y="230" width="20" height="20" rx="5" fill="#BDB2FF"/>
<rect x="51" width="21" height="20" rx="5" fill="#BDB2FF"/>
<rect x="51" y="102" width="21" height="20" rx="5" fill="#BDB2FF"/>
<rect x="51" y="26" width="21" height="20" rx="5" fill="#BDB2FF"/>
<rect x="51" y="128" width="21" height="20" rx="5" fill="#BDB2FF"/>
<rect x="51" y="51" width="21" height="20" rx="5" fill="#BDB2FF"/>
<rect x="51" y="153" width="21" height="20" rx="5" fill="#BDB2FF"/>
<rect x="51" y="205" width="21" height="20" rx="5" fill="#BDB2FF"/>
<rect x="51" y="76" width="21" height="20" rx="5" fill="#BDB2FF"/>
<rect x="51" y="178" width="21" height="20" rx="5" fill="#BDB2FF"/>
<rect x="51" y="230" width="21" height="20" rx="5" fill="#BDB2FF"/>
<rect x="153" width="21" height="20" rx="5" fill="#BDB2FF"/>
<rect x="153" y="102" width="21" height="20" rx="5" fill="#BDB2FF"/>
<rect x="153" y="26" width="21" height="20" rx="5" fill="#BDB2FF"/>
<rect x="153" y="128" width="21" height="20" rx="5" fill="#BDB2FF"/>
<rect x="153" y="51" width="21" height="20" rx="5" fill="#BDB2FF"/>
<rect x="153" y="153" width="21" height="20" rx="5" fill="#BDB2FF"/>
<rect x="153" y="205" width="21" height="20" rx="5" fill="#BDB2FF"/>
<rect x="153" y="76" width="21" height="20" rx="5" fill="#BDB2FF"/>
<rect x="153" y="178" width="21" height="20" rx="5" fill="#BDB2FF"/>
<rect x="153" y="230" width="21" height="20" rx="5" fill="#BDB2FF"/>
<rect x="26" width="20" height="20" rx="5" fill="#BDB2FF"/>
<rect x="26" y="102" width="20" height="20" rx="5" fill="#BDB2FF"/>
<rect x="26" y="26" width="20" height="20" rx="5" fill="#BDB2FF"/>
<rect x="26" y="128" width="20" height="20" rx="5" fill="#BDB2FF"/>
<rect x="26" y="51" width="20" height="20" rx="5" fill="#BDB2FF"/>
<rect x="26" y="153" width="20" height="20" rx="5" fill="#BDB2FF"/>
<rect x="26" y="205" width="20" height="20" rx="5" fill="#BDB2FF"/>
<rect x="26" y="76" width="20" height="20" rx="5" fill="#BDB2FF"/>
<rect x="26" y="178" width="20" height="20" rx="5" fill="#BDB2FF"/>
<rect x="26" y="230" width="20" height="20" rx="5" fill="#BDB2FF"/>
<rect x="128" width="20" height="20" rx="5" fill="#BDB2FF"/>
<rect x="128" y="102" width="20" height="20" rx="5" fill="#BDB2FF"/>
<rect x="128" y="26" width="20" height="20" rx="5" fill="#BDB2FF"/>
<rect x="128" y="128" width="20" height="20" rx="5" fill="#BDB2FF"/>
<rect x="128" y="51" width="20" height="20" rx="5" fill="#BDB2FF"/>
<rect x="128" y="153" width="20" height="20" rx="5" fill="#BDB2FF"/>
<rect x="128" y="205" width="20" height="20" rx="5" fill="#BDB2FF"/>
<rect x="128" y="76" width="20" height="20" rx="5" fill="#BDB2FF"/>
<rect x="128" y="178" width="20" height="20" rx="5" fill="#BDB2FF"/>
<rect x="128" y="230" width="20" height="20" rx="5" fill="#BDB2FF"/>
<rect x="77" width="20" height="20" rx="5" fill="#BDB2FF"/>
<rect x="77" y="102" width="20" height="20" rx="5" fill="#BDB2FF"/>
<rect x="77" y="26" width="20" height="20" rx="5" fill="#BDB2FF"/>
<rect x="77" y="128" width="20" height="20" rx="5" fill="#BDB2FF"/>
<rect x="77" y="51" width="20" height="20" rx="5" fill="#BDB2FF"/>
<rect x="77" y="153" width="20" height="20" rx="5" fill="#BDB2FF"/>
<rect x="77" y="205" width="20" height="20" rx="5" fill="#BDB2FF"/>
<rect x="77" y="76" width="20" height="20" rx="5" fill="#BDB2FF"/>
<rect x="77" y="178" width="20" height="20" rx="5" fill="#BDB2FF"/>
<rect x="77" y="230" width="20" height="20" rx="5" fill="#BDB2FF"/>
<rect x="179" width="20" height="20" rx="5" fill="#BDB2FF"/>
<rect x="179" y="102" width="20" height="20" rx="5" fill="#BDB2FF"/>
<rect x="179" y="26" width="20" height="20" rx="5" fill="#BDB2FF"/>
<rect x="179" y="128" width="20" height="20" rx="5" fill="#BDB2FF"/>
<rect x="179" y="51" width="20" height="20" rx="5" fill="#BDB2FF"/>
<rect x="179" y="153" width="20" height="20" rx="5" fill="#BDB2FF"/>
<rect x="179" y="205" width="20" height="20" rx="5" fill="#BDB2FF"/>
<rect x="179" y="76" width="20" height="20" rx="5" fill="#BDB2FF"/>
<rect x="179" y="178" width="20" height="20" rx="5" fill="#BDB2FF"/>
<rect x="179" y="230" width="20" height="20" rx="5" fill="#BDB2FF"/>
<rect x="204" width="20" height="20" rx="5" fill="#BDB2FF"/>
<rect x="204" y="102" width="20" height="20" rx="5" fill="#BDB2FF"/>
<rect x="204" y="26" width="20" height="20" rx="5" fill="#BDB2FF"/>
<rect x="204" y="128" width="20" height="20" rx="5" fill="#BDB2FF"/>
<rect x="204" y="51" width="20" height="20" rx="5" fill="#BDB2FF"/>
<rect x="204" y="153" width="20" height="20" rx="5" fill="#BDB2FF"/>
<rect x="204" y="205" width="20" height="20" rx="5" fill="#BDB2FF"/>
<rect x="204" y="76" width="20" height="20" rx="5" fill="#BDB2FF"/>
<rect x="204" y="178" width="20" height="20" rx="5" fill="#BDB2FF"/>
<rect x="204" y="230" width="20" height="20" rx="5" fill="#BDB2FF"/>
<rect x="230" width="20" height="20" rx="5" fill="#BDB2FF"/>
<rect x="230" y="102" width="20" height="20" rx="5" fill="#BDB2FF"/>
<rect x="230" y="26" width="20" height="20" rx="5" fill="#BDB2FF"/>
<rect x="230" y="128" width="20" height="20" rx="5" fill="#BDB2FF"/>
<rect x="230" y="51" width="20" height="20" rx="5" fill="#BDB2FF"/>
<rect x="230" y="153" width="20" height="20" rx="5" fill="#BDB2FF"/>
<rect x="230" y="205" width="20" height="20" rx="5" fill="#BDB2FF"/>
<rect x="230" y="76" width="20" height="20" rx="5" fill="#BDB2FF"/>
<rect x="230" y="178" width="20" height="20" rx="5" fill="#BDB2FF"/>
<rect x="230" y="230" width="20" height="20" rx="5" fill="#BDB2FF"/>
</svg>
