<svg width="350" height="350" viewBox="0 0 350 350" fill="none" xmlns="http://www.w3.org/2000/svg">
<rect width="21.14" height="21.14" rx="5.87222" fill="#B5E48C"/>
<rect y="82.2112" width="21.14" height="21.14" rx="5.87222" fill="#B5E48C"/>
<rect y="27.0122" width="21.14" height="21.14" rx="5.87222" fill="#B5E48C"/>
<rect y="109.223" width="21.14" height="21.14" rx="5.87222" fill="#B5E48C"/>
<rect y="54.0244" width="21.14" height="21.14" rx="5.87222" fill="#B5E48C"/>
<rect y="136.236" width="21.14" height="21.14" rx="5.87222" fill="#B5E48C"/>
<rect x="164.438" width="21.14" height="21.14" rx="5.87222" fill="#B5E48C"/>
<rect x="164.438" y="82.2112" width="21.14" height="21.14" rx="5.87222" fill="#B5E48C"/>
<rect x="164.438" y="27.0122" width="21.14" height="21.14" rx="5.87222" fill="#B5E48C"/>
<rect x="164.438" y="109.223" width="21.14" height="21.14" rx="5.87222" fill="#B5E48C"/>
<rect x="164.438" y="54.0244" width="21.14" height="21.14" rx="5.87222" fill="#B5E48C"/>
<rect x="164.438" y="136.236" width="21.14" height="21.14" rx="5.87222" fill="#B5E48C"/>
<rect x="328.86" width="21.14" height="21.14" rx="5.87222" fill="#B5E48C"/>
<rect x="328.86" y="82.2112" width="21.14" height="21.14" rx="5.87222" fill="#B5E48C"/>
<rect x="328.86" y="27.0122" width="21.14" height="21.14" rx="5.87222" fill="#B5E48C"/>
<rect x="328.86" y="109.223" width="21.14" height="21.14" rx="5.87222" fill="#B5E48C"/>
<rect x="328.86" y="54.0244" width="21.14" height="21.14" rx="5.87222" fill="#B5E48C"/>
<rect x="328.86" y="136.236" width="21.14" height="21.14" rx="5.87222" fill="#B5E48C"/>
<rect x="82.2112" width="21.14" height="21.14" rx="5.87222" fill="#B5E48C"/>
<rect x="82.2112" y="82.2112" width="21.14" height="21.14" rx="5.87222" fill="#B5E48C"/>
<rect x="82.2112" y="27.0122" width="21.14" height="21.14" rx="5.87222" fill="#B5E48C"/>
<rect x="82.2112" y="109.223" width="21.14" height="21.14" rx="5.87222" fill="#B5E48C"/>
<rect x="82.2112" y="54.0244" width="21.14" height="21.14" rx="5.87222" fill="#B5E48C"/>
<rect x="82.2112" y="136.236" width="21.14" height="21.14" rx="5.87222" fill="#B5E48C"/>
<rect x="246.649" width="21.14" height="21.14" rx="5.87222" fill="#B5E48C"/>
<rect x="246.649" y="82.2112" width="21.14" height="21.14" rx="5.87222" fill="#B5E48C"/>
<rect x="246.649" y="27.0122" width="21.14" height="21.14" rx="5.87222" fill="#B5E48C"/>
<rect x="246.649" y="109.223" width="21.14" height="21.14" rx="5.87222" fill="#B5E48C"/>
<rect x="246.649" y="54.0244" width="21.14" height="21.14" rx="5.87222" fill="#B5E48C"/>
<rect x="246.649" y="136.236" width="21.14" height="21.14" rx="5.87222" fill="#B5E48C"/>
<rect x="27.0121" width="21.14" height="21.14" rx="5.87222" fill="#B5E48C"/>
<rect x="27.0121" y="82.2112" width="21.14" height="21.14" rx="5.87222" fill="#B5E48C"/>
<rect x="27.0121" y="27.0122" width="21.14" height="21.14" rx="5.87222" fill="#B5E48C"/>
<rect x="27.0121" y="109.223" width="21.14" height="21.14" rx="5.87222" fill="#B5E48C"/>
<rect x="27.0121" y="54.0244" width="21.14" height="21.14" rx="5.87222" fill="#B5E48C"/>
<rect x="27.0121" y="136.236" width="21.14" height="21.14" rx="5.87222" fill="#B5E48C"/>
<rect x="192" width="21.14" height="21.14" rx="5.87222" fill="#B5E48C"/>
<rect x="192" y="82.2112" width="21.14" height="21.14" rx="5.87222" fill="#B5E48C"/>
<rect x="192" y="27.0122" width="21.14" height="21.14" rx="5.87222" fill="#B5E48C"/>
<rect x="192" y="109.223" width="21.14" height="21.14" rx="5.87222" fill="#B5E48C"/>
<rect x="192" y="54.0244" width="21.14" height="21.14" rx="5.87222" fill="#B5E48C"/>
<rect x="192" y="136.236" width="21.14" height="21.14" rx="5.87222" fill="#B5E48C"/>
<rect x="109.224" width="21.14" height="21.14" rx="5.87222" fill="#B5E48C"/>
<rect x="109.224" y="82.2112" width="21.14" height="21.14" rx="5.87222" fill="#B5E48C"/>
<rect x="109.224" y="27.0122" width="21.14" height="21.14" rx="5.87222" fill="#B5E48C"/>
<rect x="109.224" y="109.223" width="21.14" height="21.14" rx="5.87222" fill="#B5E48C"/>
<rect x="109.224" y="54.0244" width="21.14" height="21.14" rx="5.87222" fill="#B5E48C"/>
<rect x="109.224" y="136.236" width="21.14" height="21.14" rx="5.87222" fill="#B5E48C"/>
<rect x="273.661" width="21.14" height="21.14" rx="5.87222" fill="#B5E48C"/>
<rect x="273.661" y="82.2112" width="21.14" height="21.14" rx="5.87222" fill="#B5E48C"/>
<rect x="273.661" y="27.0122" width="21.14" height="21.14" rx="5.87222" fill="#B5E48C"/>
<rect x="273.661" y="109.223" width="21.14" height="21.14" rx="5.87222" fill="#B5E48C"/>
<rect x="273.661" y="54.0244" width="21.14" height="21.14" rx="5.87222" fill="#B5E48C"/>
<rect x="273.661" y="136.236" width="21.14" height="21.14" rx="5.87222" fill="#B5E48C"/>
<rect x="55.1985" width="21.14" height="21.14" rx="5.87222" fill="#B5E48C"/>
<rect x="55.1985" y="82.2112" width="21.14" height="21.14" rx="5.87222" fill="#B5E48C"/>
<rect x="55.1985" y="27.0122" width="21.14" height="21.14" rx="5.87222" fill="#B5E48C"/>
<rect x="55.1985" y="109.223" width="21.14" height="21.14" rx="5.87222" fill="#B5E48C"/>
<rect x="55.1985" y="54.0244" width="21.14" height="21.14" rx="5.87222" fill="#B5E48C"/>
<rect x="55.1985" y="136.236" width="21.14" height="21.14" rx="5.87222" fill="#B5E48C"/>
<rect x="219.636" width="21.14" height="21.14" rx="5.87222" fill="#B5E48C"/>
<rect x="219.636" y="82.2112" width="21.14" height="21.14" rx="5.87222" fill="#B5E48C"/>
<rect x="219.636" y="27.0122" width="21.14" height="21.14" rx="5.87222" fill="#B5E48C"/>
<rect x="219.636" y="109.223" width="21.14" height="21.14" rx="5.87222" fill="#B5E48C"/>
<rect x="219.636" y="54.0244" width="21.14" height="21.14" rx="5.87222" fill="#B5E48C"/>
<rect x="219.636" y="136.236" width="21.14" height="21.14" rx="5.87222" fill="#B5E48C"/>
<rect x="137.41" width="21.14" height="21.14" rx="5.87222" fill="#B5E48C"/>
<rect x="137.41" y="82.2112" width="21.14" height="21.14" rx="5.87222" fill="#B5E48C"/>
<rect x="137.41" y="27.0122" width="21.14" height="21.14" rx="5.87222" fill="#B5E48C"/>
<rect x="137.41" y="109.223" width="21.14" height="21.14" rx="5.87222" fill="#B5E48C"/>
<rect x="137.41" y="54.0244" width="21.14" height="21.14" rx="5.87222" fill="#B5E48C"/>
<rect x="137.41" y="136.236" width="21.14" height="21.14" rx="5.87222" fill="#B5E48C"/>
<rect x="301.848" width="21.14" height="21.14" rx="5.87222" fill="#B5E48C"/>
<rect x="301.848" y="82.2112" width="21.14" height="21.14" rx="5.87222" fill="#B5E48C"/>
<rect x="301.848" y="27.0122" width="21.14" height="21.14" rx="5.87222" fill="#B5E48C"/>
<rect x="301.848" y="109.223" width="21.14" height="21.14" rx="5.87222" fill="#B5E48C"/>
<rect x="301.848" y="54.0244" width="21.14" height="21.14" rx="5.87222" fill="#B5E48C"/>
<rect x="301.848" y="136.236" width="21.14" height="21.14" rx="5.87222" fill="#B5E48C"/>
<rect y="163.263" width="21.14" height="21.14" rx="5.87222" fill="#B5E48C"/>
<rect y="245.474" width="21.14" height="21.14" rx="5.87222" fill="#B5E48C"/>
<rect y="190" width="21.14" height="21.14" rx="5.87222" fill="#B5E48C"/>
<rect y="272.487" width="21.14" height="21.14" rx="5.87222" fill="#B5E48C"/>
<rect y="217.288" width="21.14" height="21.14" rx="5.87222" fill="#B5E48C"/>
<rect y="299.499" width="21.14" height="21.14" rx="5.87222" fill="#B5E48C"/>
<rect y="328.86" width="21.14" height="21.14" rx="5.87222" fill="#B5E48C"/>
<rect x="164.438" y="163.263" width="21.14" height="21.14" rx="5.87222" fill="#B5E48C"/>
<rect x="164.438" y="245.474" width="21.14" height="21.14" rx="5.87222" fill="#B5E48C"/>
<rect x="164.438" y="190" width="21.14" height="21.14" rx="5.87222" fill="#B5E48C"/>
<rect x="164.438" y="272.487" width="21.14" height="21.14" rx="5.87222" fill="#B5E48C"/>
<rect x="164.438" y="217.288" width="21.14" height="21.14" rx="5.87222" fill="#B5E48C"/>
<rect x="164.438" y="299.499" width="21.14" height="21.14" rx="5.87222" fill="#B5E48C"/>
<rect x="164.438" y="328.86" width="21.14" height="21.14" rx="5.87222" fill="#B5E48C"/>
<rect x="328.86" y="163.263" width="21.14" height="21.14" rx="5.87222" fill="#B5E48C"/>
<rect x="328.86" y="245.474" width="21.14" height="21.14" rx="5.87222" fill="#B5E48C"/>
<rect x="328.86" y="190" width="21.14" height="21.14" rx="5.87222" fill="#B5E48C"/>
<rect x="328.86" y="272.487" width="21.14" height="21.14" rx="5.87222" fill="#B5E48C"/>
<rect x="328.86" y="217.288" width="21.14" height="21.14" rx="5.87222" fill="#B5E48C"/>
<rect x="328.86" y="299.499" width="21.14" height="21.14" rx="5.87222" fill="#B5E48C"/>
<rect x="328.86" y="328.86" width="21.14" height="21.14" rx="5.87222" fill="#B5E48C"/>
<rect x="82.2112" y="163.263" width="21.14" height="21.14" rx="5.87222" fill="#B5E48C"/>
<rect x="82.2112" y="245.474" width="21.14" height="21.14" rx="5.87222" fill="#B5E48C"/>
<rect x="82.2112" y="190" width="21.14" height="21.14" rx="5.87222" fill="#B5E48C"/>
<rect x="82.2112" y="272.487" width="21.14" height="21.14" rx="5.87222" fill="#B5E48C"/>
<rect x="82.2112" y="217.288" width="21.14" height="21.14" rx="5.87222" fill="#B5E48C"/>
<rect x="82.2112" y="299.499" width="21.14" height="21.14" rx="5.87222" fill="#B5E48C"/>
<rect x="82.2112" y="328.86" width="21.14" height="21.14" rx="5.87222" fill="#B5E48C"/>
<rect x="246.649" y="163.263" width="21.14" height="21.14" rx="5.87222" fill="#B5E48C"/>
<rect x="246.649" y="245.474" width="21.14" height="21.14" rx="5.87222" fill="#B5E48C"/>
<rect x="246.649" y="190" width="21.14" height="21.14" rx="5.87222" fill="#B5E48C"/>
<rect x="246.649" y="272.487" width="21.14" height="21.14" rx="5.87222" fill="#B5E48C"/>
<rect x="246.649" y="217.288" width="21.14" height="21.14" rx="5.87222" fill="#B5E48C"/>
<rect x="246.649" y="299.499" width="21.14" height="21.14" rx="5.87222" fill="#B5E48C"/>
<rect x="246.649" y="328.86" width="21.14" height="21.14" rx="5.87222" fill="#B5E48C"/>
<rect x="27.0121" y="163.263" width="21.14" height="21.14" rx="5.87222" fill="#B5E48C"/>
<rect x="27.0121" y="245.474" width="21.14" height="21.14" rx="5.87222" fill="#B5E48C"/>
<rect x="27.0122" y="190" width="21.14" height="21.14" rx="5.87222" fill="#B5E48C"/>
<rect x="27.0121" y="272.487" width="21.14" height="21.14" rx="5.87222" fill="#B5E48C"/>
<rect x="27.0121" y="217.288" width="21.14" height="21.14" rx="5.87222" fill="#B5E48C"/>
<rect x="27.0121" y="299.499" width="21.14" height="21.14" rx="5.87222" fill="#B5E48C"/>
<rect x="27.0121" y="328.86" width="21.14" height="21.14" rx="5.87222" fill="#B5E48C"/>
<rect x="192" y="163.263" width="21.14" height="21.14" rx="5.87222" fill="#B5E48C"/>
<rect x="192" y="245.474" width="21.14" height="21.14" rx="5.87222" fill="#B5E48C"/>
<rect x="192" y="190" width="21.14" height="21.14" rx="5.87222" fill="#B5E48C"/>
<rect x="192" y="272.487" width="21.14" height="21.14" rx="5.87222" fill="#B5E48C"/>
<rect x="192" y="217.288" width="21.14" height="21.14" rx="5.87222" fill="#B5E48C"/>
<rect x="192" y="299.499" width="21.14" height="21.14" rx="5.87222" fill="#B5E48C"/>
<rect x="192" y="328.86" width="21.14" height="21.14" rx="5.87222" fill="#B5E48C"/>
<rect x="109.224" y="163.263" width="21.14" height="21.14" rx="5.87222" fill="#B5E48C"/>
<rect x="109.224" y="245.474" width="21.14" height="21.14" rx="5.87222" fill="#B5E48C"/>
<rect x="109.224" y="190" width="21.14" height="21.14" rx="5.87222" fill="#B5E48C"/>
<rect x="109.224" y="272.487" width="21.14" height="21.14" rx="5.87222" fill="#B5E48C"/>
<rect x="109.224" y="217.288" width="21.14" height="21.14" rx="5.87222" fill="#B5E48C"/>
<rect x="109.224" y="299.499" width="21.14" height="21.14" rx="5.87222" fill="#B5E48C"/>
<rect x="109.224" y="328.86" width="21.14" height="21.14" rx="5.87222" fill="#B5E48C"/>
<rect x="273.661" y="163.263" width="21.14" height="21.14" rx="5.87222" fill="#B5E48C"/>
<rect x="273.661" y="245.474" width="21.14" height="21.14" rx="5.87222" fill="#B5E48C"/>
<rect x="273.661" y="190" width="21.14" height="21.14" rx="5.87222" fill="#B5E48C"/>
<rect x="273.661" y="272.487" width="21.14" height="21.14" rx="5.87222" fill="#B5E48C"/>
<rect x="273.661" y="217.288" width="21.14" height="21.14" rx="5.87222" fill="#B5E48C"/>
<rect x="273.661" y="299.499" width="21.14" height="21.14" rx="5.87222" fill="#B5E48C"/>
<rect x="273.661" y="328.86" width="21.14" height="21.14" rx="5.87222" fill="#B5E48C"/>
<rect x="55.1985" y="163.263" width="21.14" height="21.14" rx="5.87222" fill="#B5E48C"/>
<rect x="55.1985" y="245.474" width="21.14" height="21.14" rx="5.87222" fill="#B5E48C"/>
<rect x="55.1985" y="190" width="21.14" height="21.14" rx="5.87222" fill="#B5E48C"/>
<rect x="55.1985" y="272.487" width="21.14" height="21.14" rx="5.87222" fill="#B5E48C"/>
<rect x="55.1985" y="217.288" width="21.14" height="21.14" rx="5.87222" fill="#B5E48C"/>
<rect x="55.1985" y="299.499" width="21.14" height="21.14" rx="5.87222" fill="#B5E48C"/>
<rect x="55.1985" y="328.86" width="21.14" height="21.14" rx="5.87222" fill="#B5E48C"/>
<rect x="219.636" y="163.263" width="21.14" height="21.14" rx="5.87222" fill="#B5E48C"/>
<rect x="219.636" y="245.474" width="21.14" height="21.14" rx="5.87222" fill="#B5E48C"/>
<rect x="219.636" y="190" width="21.14" height="21.14" rx="5.87222" fill="#B5E48C"/>
<rect x="219.636" y="272.487" width="21.14" height="21.14" rx="5.87222" fill="#B5E48C"/>
<rect x="219.636" y="217.288" width="21.14" height="21.14" rx="5.87222" fill="#B5E48C"/>
<rect x="219.636" y="299.499" width="21.14" height="21.14" rx="5.87222" fill="#B5E48C"/>
<rect x="219.636" y="328.86" width="21.14" height="21.14" rx="5.87222" fill="#B5E48C"/>
<rect x="137.41" y="163.263" width="21.14" height="21.14" rx="5.87222" fill="#B5E48C"/>
<rect x="137.41" y="245.474" width="21.14" height="21.14" rx="5.87222" fill="#B5E48C"/>
<rect x="137.41" y="190" width="21.14" height="21.14" rx="5.87222" fill="#B5E48C"/>
<rect x="137.41" y="272.487" width="21.14" height="21.14" rx="5.87222" fill="#B5E48C"/>
<rect x="137.41" y="217.288" width="21.14" height="21.14" rx="5.87222" fill="#B5E48C"/>
<rect x="137.41" y="299.499" width="21.14" height="21.14" rx="5.87222" fill="#B5E48C"/>
<rect x="137.41" y="328.86" width="21.14" height="21.14" rx="5.87222" fill="#B5E48C"/>
<rect x="301.848" y="163.263" width="21.14" height="21.14" rx="5.87222" fill="#B5E48C"/>
<rect x="301.848" y="245.474" width="21.14" height="21.14" rx="5.87222" fill="#B5E48C"/>
<rect x="301.848" y="190" width="21.14" height="21.14" rx="5.87222" fill="#B5E48C"/>
<rect x="301.848" y="272.487" width="21.14" height="21.14" rx="5.87222" fill="#B5E48C"/>
<rect x="301.848" y="217.288" width="21.14" height="21.14" rx="5.87222" fill="#B5E48C"/>
<rect x="301.848" y="299.499" width="21.14" height="21.14" rx="5.87222" fill="#B5E48C"/>
<rect x="301.848" y="328.86" width="21.14" height="21.14" rx="5.87222" fill="#B5E48C"/>
</svg>
