<svg width="900" height="600" viewBox="0 0 900 600" fill="none" xmlns="http://www.w3.org/2000/svg">
<g clip-path="url(#clip0_86_21893)">
<rect width="900" height="600" fill="#FEFAE0"/>
<circle cx="187.927" cy="216.927" r="22.8481" transform="rotate(35 187.927 216.927)" stroke="#F9EED2" stroke-width="5.89627"/>
<path d="M283.592 109L296.262 180.854" stroke="#F9EED2" stroke-width="5.89627"/>
<path d="M254 151.262L325.854 138.592" stroke="#F9EED2" stroke-width="5.89627"/>
<path d="M775.592 253L788.262 324.854" stroke="#F9EED2" stroke-width="5.89627"/>
<path d="M746 295.262L817.854 282.592" stroke="#F9EED2" stroke-width="5.89627"/>
<path d="M295.723 290.441L368.132 299.413" stroke="#F9EED2" stroke-width="5.89627"/>
<path d="M327.441 331.132L336.413 258.723" stroke="#F9EED2" stroke-width="5.89627"/>
<path d="M678.672 504.63L641.182 567.224" stroke="#F9EED2" stroke-width="5.89627"/>
<path d="M628.63 517.182L691.224 554.672" stroke="#F9EED2" stroke-width="5.89627"/>
<path d="M97.5922 450L110.262 521.854" stroke="#F9EED2" stroke-width="5.89627"/>
<path d="M68 492.262L139.854 479.592" stroke="#F9EED2" stroke-width="5.89627"/>
<path d="M806.903 57.4265L872.952 88.4278" stroke="#F9EED2" stroke-width="5.89627"/>
<path d="M824.426 105.952L855.428 39.9027" stroke="#F9EED2" stroke-width="5.89627"/>
<circle cx="73.9271" cy="102.927" r="22.8481" transform="rotate(35 73.9271 102.927)" stroke="#F9EED2" stroke-width="5.89627"/>
<circle cx="151.927" cy="346.927" r="22.8481" transform="rotate(35 151.927 346.927)" stroke="#F9EED2" stroke-width="5.89627"/>
<circle cx="617.927" cy="200.927" r="22.8481" transform="rotate(35 617.927 200.927)" stroke="#F9EED2" stroke-width="5.89627"/>
<circle cx="373.927" cy="535.927" r="22.8481" transform="rotate(35 373.927 535.927)" stroke="#F9EED2" stroke-width="5.89627"/>
<circle cx="689.927" cy="66.9271" r="22.8481" transform="rotate(35 689.927 66.9271)" stroke="#F9EED2" stroke-width="5.89627"/>
<circle cx="853.927" cy="493.927" r="22.8481" transform="rotate(35 853.927 493.927)" stroke="#F9EED2" stroke-width="5.89627"/>
<circle cx="212.927" cy="-0.0729131" r="22.8481" transform="rotate(35 212.927 -0.0729131)" stroke="#F9EED2" stroke-width="5.89627"/>
</g>
<defs>
<clipPath id="clip0_86_21893">
<rect width="900" height="600" fill="white"/>
</clipPath>
</defs>
</svg>
