<svg width="34" height="34" viewBox="0 0 34 34" fill="none" xmlns="http://www.w3.org/2000/svg">
<path d="M33.9062 16.9211C33.9235 26.2617 26.3061 33.8996 16.9654 33.9062C12.9312 33.9091 9.22558 32.5028 6.31354 30.1525C5.55632 29.5414 5.49972 28.4065 6.18782 27.7184L6.95803 26.9482C7.54653 26.3597 8.48606 26.2953 9.13808 26.8126C11.2835 28.5151 13.9987 29.5312 16.9531 29.5312C23.9056 29.5312 29.5312 23.9045 29.5312 16.9531C29.5312 10.0006 23.9045 4.375 16.9531 4.375C13.6162 4.375 10.5855 5.67171 8.3352 7.78832L11.8047 11.2578C12.4938 11.9469 12.0058 13.125 11.0314 13.125H1.09375C0.489658 13.125 0 12.6353 0 12.0312V2.09364C0 1.11925 1.17811 0.63123 1.86717 1.32022L5.24221 4.69526C8.28577 1.78664 12.4108 0 16.9531 0C26.3054 0 33.889 7.57285 33.9062 16.9211ZM21.5392 22.3067L22.2107 21.4433C22.767 20.7281 22.6382 19.6973 21.9229 19.141L19.1406 16.977V9.84375C19.1406 8.93765 18.4061 8.20312 17.5 8.20312H16.4062C15.5001 8.20312 14.7656 8.93765 14.7656 9.84375V19.1168L19.2369 22.5945C19.9522 23.1507 20.9829 23.0219 21.5392 22.3067V22.3067Z" fill="#AB7B4E"/>
</svg>
